# xmcd CD database file
#
# Track frame offsets:
#	150
#	15373
#	35960
#	51484
#	72174
#	93488
#	109229
#	132773
#	151378
#	166969
#
# Disc length: 2408 seconds
#
# Revision: 0
# Processed by: cddbd v1.5.2PL0 Copyright (c) Steve Scherf et al.
# Submitted via: CDex 1.70beta2
#
DISCID=8409660a
DTITLE=Masayuki Takayanagi - Flower Girl
DYEAR=1969
DGENRE=Jazz
TTITLE0=So Deep and So Blue
TTITLE1=Far-Away Land
TTITLE2=Prologue to Summer
TTITLE3=Night Flight
TTITLE4=Love Wave
TTITLE5=Flower Girl
TTITLE6=Sablier
TTITLE7=So Soft
TTITLE8=Tan Tan
TTITLE9=Blues for Narcisse
EXTD=YEAR: 1969
EXTT0=
EXTT1=
EXTT2=
EXTT3=
EXTT4=
EXTT5=
EXTT6=
EXTT7=
EXTT8=
EXTT9=
PLAYORDER=
